<svg xmlns="http://www.w3.org/2000/svg" xmlns:xlink="http://www.w3.org/1999/xlink" width="140" height="140" viewBox="0 0 140 140">
    <defs>
        <path id="nhkniir3ja" d="M0 0.631L27.808 0.631 27.808 31.802 0 31.802z"/>
    </defs>
    <g fill="none" fill-rule="evenodd">
        <g>
            <g>
                <g>
                    <path fill="#C10931" d="M0 140L140 140 140 0 0 0z" transform="translate(-171 -4106) translate(147 4082) translate(24 24)"/>
                    <g>
                        <path fill="#FEFEFE" d="M58.314 70.874l-1.462 1.454-4.913-4.889 1.46-1.453c1.272-1.265 2.585-.338 3.92.99 1.333 1.327 2.265 2.633.995 3.898m-7.095-6.975l-3.792 3.772 15.08 15.002 2.371-2.359-5.888-5.858 1.42-1.411c2.859-2.846 2.308-5.416-.741-8.45-3.156-3.14-5.719-3.414-8.45-.696M38.768 60.152c-.658.654-1.316.89-1.87.863-.895-.052-1.632-.575-2.631-1.57l-2.949 2.933c1.975 1.964 3.45 2.803 5.239 2.803 1.579 0 3.237-.76 4.87-2.384 1.659-1.65 2.396-3.379 2.422-4.872.026-1.86-1-3.405-2.922-5.318-3.16-3.143-4.95-3.718-8.109-2.41l-3.106 1.31c-1.842.786-2.553.55-4.08-.968-.817-.812-1.29-1.598-1.343-2.331-.025-.603.132-1.18.737-1.782.633-.628 1.264-.838 1.87-.76.894.106 1.606.708 2.448 1.546l2.947-2.933c-1.79-1.781-3.474-2.777-5.396-2.75-1.5.025-3 .732-4.5 2.226-1.344 1.336-1.975 2.802-2.08 4.322-.106 1.938.762 3.797 2.448 5.474 2.896 2.881 4.632 3.195 7.317 2.095l3.16-1.31c2.026-.864 2.843-.68 4.843 1.31 1.002.995 1.527 1.729 1.58 2.567.053.628-.21 1.257-.895 1.939M50.398 48.579c-.658.655-1.316.89-1.869.864-.894-.052-1.631-.576-2.632-1.571l-2.948 2.934c1.973 1.964 3.448 2.802 5.238 2.802 1.58 0 3.238-.76 4.87-2.383 1.658-1.65 2.395-3.379 2.422-4.873.026-1.859-1-3.405-2.923-5.317-3.157-3.143-4.948-3.72-8.107-2.41l-3.106 1.31c-1.843.786-2.553.55-4.08-.969-.816-.812-1.29-1.598-1.343-2.33-.027-.603.132-1.18.737-1.782.631-.63 1.264-.839 1.87-.76.894.105 1.605.707 2.447 1.545l2.95-2.933c-1.791-1.781-3.477-2.777-5.398-2.75-1.5.026-3.001.733-4.502 2.227-1.342 1.335-1.974 2.802-2.08 4.32-.104 1.94.764 3.8 2.449 5.476 2.895 2.88 4.634 3.195 7.318 2.095l3.16-1.31c2.027-.865 2.843-.681 4.844 1.31 1 .995 1.525 1.729 1.578 2.567.053.628-.21 1.257-.895 1.938M40.763 66.422L38.878 68.297 40.297 72.744 41.865 71.185zM44.523 22.05L41.575 24.984 60.318 43.633 63.266 40.7zM69.18 28.53c.156.68-.001 1.414-.712 2.12-.71.708-1.422.839-2.105.682-1.448-.34-3.448-2.121-6.871-5.527-3.421-3.405-5.212-5.396-5.554-6.835-.159-.682-.027-1.39.685-2.097.71-.707 1.447-.864 2.132-.707 1.447.34 3.422 2.148 6.845 5.553 3.421 3.405 5.237 5.37 5.58 6.81m4.002-.419c-.186-2.96-2.95-5.658-6.635-9.325-3.685-3.667-6.397-6.417-9.37-6.6-1.686-.105-3.423.262-5.213 2.043-1.79 1.781-2.159 3.51-2.053 5.186.184 2.96 2.948 5.658 6.634 9.325 3.684 3.666 6.396 6.417 9.37 6.6 1.685.105 3.421-.262 5.212-2.043 1.79-1.78 2.158-3.51 2.055-5.186M85.778 41.693L98.293 47.066 100.39 44.98 85.311 29.977 82.94 32.337 91.897 41.25 79.402 35.855 77.285 37.963 92.364 52.966 94.735 50.606zM79.72 55.347L74.7 47.783l7.602 4.993-2.584 2.571zm-9.805-10.051l11.373 18.69 2.498-2.485-2.394-3.562 3.496-3.477 3.6 2.36 2.477-2.465-18.742-11.359-2.308 2.298zM58.319 82.586L54.358 86.525 49.975 82.163 53.384 78.771 51.245 76.642 47.835 80.033 43.559 75.777 47.518 71.838 45.379 69.709 39.048 76.009 54.126 91.013 60.459 84.712zM67.991 64.068L70.936 61.138 77.542 67.713 79.915 65.353 64.835 50.349 62.465 52.71 68.817 59.031 65.873 61.96 59.52 55.638 57.148 57.999 72.227 73.003 74.6 70.642zM32.037 87.241L34.558 84.734 47.498 97.609 49.869 95.249 36.93 82.375 39.47 79.845 37.332 77.717 29.898 85.114zM87.85 27.451L102.929 42.454 109.261 36.154 107.121 34.026 103.16 37.966 98.777 33.604 102.186 30.211 100.049 28.084 96.637 31.476 92.36 27.219 96.321 23.279 94.181 21.15zM97.681 81.814l-2.932 2.92-9.27-9.224 2.934-2.92c2.55-2.538 5.059-.803 7.568 1.693 2.508 2.497 4.252 4.993 1.7 7.53m3.063-12.269c-6.25-6.22-11.14-6.685-16.668-1.185l-7.656 7.616 30.276 30.124 4.764-4.738-12.416-12.355 2.677-2.665 16.372 8.42 4.975-4.95-17.944-8.886c1.276-4.23-.638-7.657-4.38-11.38M15.163 51.263L12.216 54.196 30.958 72.845 33.907 69.912zM76.604 84.342L72.308 80.068 59.594 92.717 89.869 122.842 102.584 110.192 98.289 105.919 90.338 113.831 81.535 105.072 88.382 98.261 84.088 93.988 77.24 100.799 68.651 92.253zM37.844 103.252c-.53.528-1.059.716-1.503.695-.72-.042-1.314-.463-2.118-1.263l-2.372 2.36c1.588 1.579 2.773 2.255 4.214 2.255 1.27 0 2.605-.613 3.918-1.918 1.334-1.328 1.928-2.718 1.95-3.92.02-1.495-.806-2.74-2.353-4.277-2.54-2.53-3.981-2.992-6.523-1.939L30.56 96.3c-1.482.632-2.055.442-3.283-.78-.657-.654-1.038-1.286-1.08-1.875-.021-.485.106-.95.594-1.433.507-.508 1.016-.674 1.502-.611.72.085 1.293.568 1.97 1.242l2.373-2.36c-1.441-1.433-2.796-2.234-4.343-2.212-1.206.02-2.413.59-3.621 1.79-1.08 1.075-1.588 2.256-1.673 3.479-.085 1.559.614 3.054 1.97 4.404 2.329 2.317 3.727 2.57 5.887 1.684l2.542-1.053c1.63-.695 2.287-.547 3.897 1.053.805.801 1.227 1.393 1.27 2.066.042.506-.17 1.012-.72 1.559" transform="translate(-171 -4106) translate(147 4082) translate(24 24)"/>
                        <g transform="translate(-171 -4106) translate(147 4082) translate(24 24) translate(0 56.7)">
                            <mask id="9luifaaa1b" fill="#fff">
                                <use xlink:href="#nhkniir3ja"/>
                            </mask>
                            <path fill="#FEFEFE" d="M27.808 19.281L9.065 0.631 6.379 3.303 12.619 16.688 0 10.9 0 16.652 15.225 31.802 18.173 28.867 6.617 17.369 16.673 22.398 18.305 20.774 13.171 10.585 24.86 22.214z" mask="url(#9luifaaa1b)"/>
                        </g>
                        <path fill="#FEFEFE" d="M88.548 15.544L73.33.403 67.432.403 77.991 10.908 62.461 4.203 59.828 6.822 78.57 25.472 81.518 22.538 70.384 11.458 85.942 18.138zM139.595 73.337L139.595 66.337 112.851 39.726 108.09 44.465 126.076 62.362 100.988 51.531 96.736 55.762 127.012 85.888 131.774 81.147 113.786 63.25 138.898 74.032zM72.568 131.511l-2.296 2.286-9.44-9.392 2.297-2.287c2.551-2.538 4.975-2.242 8.334 1.1 3.53 3.513 3.7 5.713 1.105 8.293m-13.52-13.37l-2.255 2.244-8.206-8.167 2.254-2.242c2.55-2.54 4.592-2.54 7.654.507 2.89 2.878 3.061 5.162.552 7.657m17.222.383c-1.872-1.862-4.295-4.02-7.4-4.147-.893-.041-1.828.127-2.722.507.34-.845.512-1.69.512-2.622 0-2.709-1.49-4.613-3.53-6.644-2.976-2.96-5.485-4.442-8.25-4.484-2.55 0-4.974 1.226-7.78 4.02l-7.57 7.53L66.28 139.3h7.05l4.002-3.98c2.805-2.794 4.081-5.247 4.04-7.829-.046-2.918-1.66-5.542-5.103-8.968" transform="translate(-171 -4106) translate(147 4082) translate(24 24)"/>
                    </g>
                </g>
            </g>
        </g>
    </g>
</svg>
